<svg id="Layer_1" data-name="Layer 1" xmlns="http://www.w3.org/2000/svg" viewBox="0 0 16 16"><defs><style>.cls-1{fill:#aeb0c2;isolation:isolate;}</style></defs><path id="at_line" data-name="at line" class="cls-1" d="M14.6,8A6.44,6.44,0,0,0,14,5.17,6.53,6.53,0,0,0,12.19,2.9,6.62,6.62,0,0,0,6.7,1.53,6.48,6.48,0,0,0,2.18,4.88a6.7,6.7,0,0,0-.77,2.8,6.61,6.61,0,0,0,4.67,6.64A6.49,6.49,0,0,0,9,14.54a6.71,6.71,0,0,0,2.72-1l.9,1.37a8.34,8.34,0,0,1-2.17,1,8.5,8.5,0,0,1-2.4.35,8.12,8.12,0,0,1-4.16-1.12,8.45,8.45,0,0,1-3-3A8.12,8.12,0,0,1-.25,8,8.12,8.12,0,0,1,.87,3.84a8.45,8.45,0,0,1,3-3A8.12,8.12,0,0,1,8-.25,8.12,8.12,0,0,1,12.16.87a8.45,8.45,0,0,1,3,3A8.12,8.12,0,0,1,16.25,8V9.24a2.89,2.89,0,0,1-2.9,2.88,2.73,2.73,0,0,1-.94-.16A2.83,2.83,0,0,1,11,10.85,4.12,4.12,0,0,1,7.13,12a4.13,4.13,0,0,1-.64-7.88,4.22,4.22,0,0,1,2-.25,4,4,0,0,1,1.93.79h1.65V9.24a1.24,1.24,0,0,0,2.48,0ZM8,5.53a2.46,2.46,0,1,0,1.25.33A2.39,2.39,0,0,0,8,5.53Z"/></svg>