<svg id="Layer_1" data-name="Layer 1" xmlns="http://www.w3.org/2000/svg" viewBox="0 0 16 16"><defs><style>.cls-1{fill:#aeb0c2;}</style></defs><path class="cls-1" d="M13.5,3.5H13v-2A1.5,1.5,0,0,0,11.5,0h-7A1.5,1.5,0,0,0,3,1.5v2H2.5A2.5,2.5,0,0,0,0,6v4.36a2.5,2.5,0,0,0,2.5,2.5H3V14.5A1.5,1.5,0,0,0,4.5,16h7A1.5,1.5,0,0,0,13,14.5V12.86h.5a2.5,2.5,0,0,0,2.5-2.5V6A2.5,2.5,0,0,0,13.5,3.5Zm-9-2h7v2h-7Zm0,9.86v-1h7V14.5h-7V11.36Zm10-1a1,1,0,0,1-1,1H13V8.86H3v2.5H2.5a1,1,0,0,1-1-1V6a1,1,0,0,1,1-1h11a1,1,0,0,1,1,1Z"/><path class="cls-1" d="M12.36,6H11.08a.5.5,0,0,0,0,1h1.28a.5.5,0,0,0,0-1Z"/></svg>