<svg id="Layer_1" data-name="Layer 1" xmlns="http://www.w3.org/2000/svg" viewBox="0 0 16 16"><defs><style>.cls-1{fill:#08135e;}</style></defs><rect class="cls-1" width="4" height="4" rx="1.5"/><rect class="cls-1" y="6" width="4" height="4" rx="1.5"/><rect class="cls-1" y="12" width="4" height="4" rx="1.5"/><path class="cls-1" d="M15.25,2.75H6.75a.75.75,0,0,1,0-1.5h8.5a.75.75,0,0,1,0,1.5Z"/><path class="cls-1" d="M15.25,8.75H6.75a.75.75,0,0,1,0-1.5h8.5a.75.75,0,0,1,0,1.5Z"/><path class="cls-1" d="M15.25,14.75H6.75a.75.75,0,0,1,0-1.5h8.5a.75.75,0,0,1,0,1.5Z"/></svg>