<svg id="Layer_1" data-name="Layer 1" xmlns="http://www.w3.org/2000/svg" viewBox="0 0 12 12"><defs><style>.cls-1{isolation:isolate;}.cls-2{fill:#aeb0c2;}</style></defs><g class="cls-1"><polygon class="cls-2" points="12 8.75 9.75 8.75 9.75 6.5 8.75 6.5 8.75 8.75 6.5 8.75 6.5 9.75 8.75 9.75 8.75 12 9.75 12 9.75 9.75 12 9.75 12 8.75"/><path class="cls-2" d="M1,11v-.11a4,4,0,0,1,4-4,3.94,3.94,0,0,1,1.68.38l.78-.71A5,5,0,0,0,5.85,6a3.06,3.06,0,1,0-1.7,0A5,5,0,0,0,0,10.89,5.11,5.11,0,0,0,.13,12H6.78l-.67-1ZM2.94,3.06A2.06,2.06,0,1,1,5,5.11,2.06,2.06,0,0,1,2.94,3.06Z"/></g></svg>