<svg id="Layer_1" data-name="Layer 1" xmlns="http://www.w3.org/2000/svg" viewBox="0 0 16 16"><defs><style>.cls-1{fill:#817d9d;}</style></defs><path class="cls-1" d="M13.5,1.48H11.75V.75a.75.75,0,0,0-1.5,0v.73H5.75V.75a.75.75,0,0,0-1.5,0v.73H2.5A2.5,2.5,0,0,0,0,4v9.5A2.5,2.5,0,0,0,2.5,16h11a2.5,2.5,0,0,0,2.5-2.5V4A2.5,2.5,0,0,0,13.5,1.48Zm1,12a1,1,0,0,1-1,1H2.5a1,1,0,0,1-1-1V4a1,1,0,0,1,1-1H4.25v.77a.75.75,0,0,0,1.5,0V3h4.5v.77a.75.75,0,0,0,1.5,0V3H13.5a1,1,0,0,1,1,1Z"/><path class="cls-1" d="M7.42,9.79,5.5,8.07l-1,1.11L7,11.43a.73.73,0,0,0,.5.19h.06a.72.72,0,0,0,.52-.27l3.5-4.25-1.16-.95Z"/></svg>