<svg id="Layer_1" data-name="Layer 1" xmlns="http://www.w3.org/2000/svg" viewBox="0 0 16 16"><defs><style>.cls-1{fill:#08135e;}</style></defs><path class="cls-1" d="M5.5,1.5v4h-4v-4h4M5.5,0h-4A1.5,1.5,0,0,0,0,1.5v4A1.5,1.5,0,0,0,1.5,7h4A1.5,1.5,0,0,0,7,5.5v-4A1.5,1.5,0,0,0,5.5,0Z"/><path class="cls-1" d="M14.5,1.5v4h-4v-4h4m0-1.5h-4A1.5,1.5,0,0,0,9,1.5v4A1.5,1.5,0,0,0,10.5,7h4A1.5,1.5,0,0,0,16,5.5v-4A1.5,1.5,0,0,0,14.5,0Z"/><path class="cls-1" d="M5.5,10.5v4h-4v-4h4M5.5,9h-4A1.5,1.5,0,0,0,0,10.5v4A1.5,1.5,0,0,0,1.5,16h4A1.5,1.5,0,0,0,7,14.5v-4A1.5,1.5,0,0,0,5.5,9Z"/><path class="cls-1" d="M14.5,10.5v4h-4v-4h4m0-1.5h-4A1.5,1.5,0,0,0,9,10.5v4A1.5,1.5,0,0,0,10.5,16h4A1.5,1.5,0,0,0,16,14.5v-4A1.5,1.5,0,0,0,14.5,9Z"/></svg>