<svg id="Layer_1" data-name="Layer 1" xmlns="http://www.w3.org/2000/svg" viewBox="0 0 16 16"><defs><style>.cls-1{fill:#08135e;}</style></defs><path class="cls-1" d="M14.72,6.09,9,11.86v1.06h1.07l5.7-5.77a.75.75,0,0,0,0-1.06A.75.75,0,0,0,14.72,6.09Z"/><path class="cls-1" d="M13.5,0H2.5A2.5,2.5,0,0,0,0,2.5v11A2.5,2.5,0,0,0,2.5,16h11A2.5,2.5,0,0,0,16,13.5V8.68l-1.5,1.51V13.5a1,1,0,0,1-1,1H2.5a1,1,0,0,1-1-1V2.5a1,1,0,0,1,1-1h11a1,1,0,0,1,1,1V5.26L16,3.75V2.5A2.5,2.5,0,0,0,13.5,0Z"/><path class="cls-1" d="M11,5.5H5a.5.5,0,0,1,0-1h6a.5.5,0,0,1,0,1Z"/><path class="cls-1" d="M8,8.5H5a.5.5,0,0,1,0-1H8a.5.5,0,0,1,0,1Z"/></svg>