<?xml version="1.0" encoding="utf-8"?>
<!-- Generator: Adobe Illustrator 24.1.2, SVG Export Plug-In . SVG Version: 6.00 Build 0)  -->
<svg version="1.1" id="Layer_1" xmlns="http://www.w3.org/2000/svg" xmlns:xlink="http://www.w3.org/1999/xlink" x="0px" y="0px"
	 viewBox="0 0 28 28" style="enable-background:new 0 0 28 28;" xml:space="preserve">
<style type="text/css">
	.st0{fill:#F6EFE4;}
	.st1{fill:#08135E;}
</style>
<g id="Group_626" transform="translate(2.5 2.5)">
	<path id="Path_195" class="st0" d="M11.5-2.5c-7.7,0-14,6.3-14,14s6.3,14,14,14s14-6.3,14-14S19.2-2.5,11.5-2.5z"/>
</g>
<path class="st1" d="M15.3,14.6c1.6-0.6,2.6-2.3,2.3-4.2c-0.3-1.3-1.4-2.5-2.7-2.8c-2.4-0.6-4.5,1.3-4.5,3.6c0,1.6,1,2.9,2.3,3.4
	c-2.2,0.4-3.9,1.9-4.8,3.8c-0.4,1,0.3,2.1,1.4,2.1h9.5c1.1,0,1.8-1.1,1.4-2.1C19.3,16.5,17.5,15,15.3,14.6z M11.6,11.2
	c0-1.3,1.1-2.4,2.4-2.4s2.4,1.1,2.4,2.4c0,1.3-1.1,2.4-2.4,2.4S11.6,12.5,11.6,11.2z M14,15.6c1.7,0,3.2,0.8,4.2,2
	c0.5,0.7,0.1,1.7-0.8,1.7h-6.9c-0.9,0-1.3-1-0.8-1.7C10.8,16.4,12.3,15.6,14,15.6z"/>
</svg>
