<svg id="Layer_1" data-name="Layer 1" xmlns="http://www.w3.org/2000/svg" viewBox="0 0 16 16"><defs><style>.cls-1{fill:#08135e;}</style></defs><path class="cls-1" d="M13.5,0H2.5A2.5,2.5,0,0,0,0,2.5v9A2.5,2.5,0,0,0,2.5,14H6l2,2,2-2h3.5A2.5,2.5,0,0,0,16,11.5v-9A2.5,2.5,0,0,0,13.5,0Zm1,11.5a1,1,0,0,1-1,1H9.38l-.44.44L8,13.88l-.94-.94-.44-.44H2.5a1,1,0,0,1-1-1v-9a1,1,0,0,1,1-1h11a1,1,0,0,1,1,1Z"/><rect class="cls-1" x="4.5" y="5" width="7" height="1"/><rect class="cls-1" x="4.5" y="8" width="7" height="1"/></svg>