<svg id="Layer_1" data-name="Layer 1" xmlns="http://www.w3.org/2000/svg" viewBox="0 0 16 16"><defs><style>.cls-1{fill:#ffb638;}.cls-1,.cls-2{isolation:isolate;}.cls-2{fill:#08135e;}</style></defs><path id="smile" class="cls-1" d="M2.15,2.18A8,8,0,0,1,8-.25a8,8,0,0,1,5.84,2.41A8,8,0,0,1,16.25,8a8,8,0,0,1-2.41,5.84A8,8,0,0,1,8,16.25a8,8,0,0,1-5.84-2.41A8,8,0,0,1-.25,8,7.92,7.92,0,0,1,2.15,2.18Z"/><path class="cls-2" d="M6.08,7.17a1,1,0,0,1-.74.3A1.06,1.06,0,1,1,6.1,5.66a1.09,1.09,0,0,1,.3.74A1.06,1.06,0,0,1,6.08,7.17Z"/><path class="cls-2" d="M11.4,7.17a1,1,0,0,1-.74.3,1.06,1.06,0,0,1-.75-1.81,1.07,1.07,0,0,1,1.51,0,1.05,1.05,0,0,1,.31.74,1.08,1.08,0,0,1-.34.77Z"/><path class="cls-2" d="M10.8,9.9a.68.68,0,0,1,.53-.3.73.73,0,0,1,.58.18.81.81,0,0,1,.29.55.79.79,0,0,1-.17.57,5,5,0,0,1-4,1.89,5,5,0,0,1-4-1.9.68.68,0,0,1-.17-.56.82.82,0,0,1,.28-.55.77.77,0,0,1,.58-.19.76.76,0,0,1,.54.3A3.45,3.45,0,0,0,8,11.19,3.47,3.47,0,0,0,10.79,9.9Z"/></svg>