<svg id="Layer_1" data-name="Layer 1" xmlns="http://www.w3.org/2000/svg" viewBox="0 0 16 16"><defs><style>.cls-1{fill:#aeb0c2;isolation:isolate;}</style></defs><path class="cls-1" d="M6.07,7.17a1,1,0,0,1-.73.3,1.05,1.05,0,0,1-.75-1.81A1.06,1.06,0,1,1,6.07,7.17Z"/><path class="cls-1" d="M11.4,7.17a1,1,0,0,1-.74.3,1.06,1.06,0,0,1-.75-1.81,1.07,1.07,0,0,1,1.51,0,1.15,1.15,0,0,1,.31.74,1.12,1.12,0,0,1-.34.77Z"/><path class="cls-1" d="M10.8,9.9a.68.68,0,0,1,.53-.3.73.73,0,0,1,.58.18.8.8,0,0,1,.28.55.74.74,0,0,1-.16.57,5,5,0,0,1-4,1.89,5,5,0,0,1-4-1.9.71.71,0,0,1-.16-.56.8.8,0,0,1,.86-.74.74.74,0,0,1,.53.3A3.47,3.47,0,0,0,8,11.19,3.47,3.47,0,0,0,10.79,9.9Z"/><path class="cls-1" d="M8,1.25A6.75,6.75,0,1,1,1.25,8,6.76,6.76,0,0,1,8,1.25M8-.25A8.25,8.25,0,1,0,16.25,8,8.25,8.25,0,0,0,8-.25Z"/></svg>