<?xml version="1.0" encoding="utf-8"?>
<!-- Generator: Adobe Illustrator 24.1.0, SVG Export Plug-In . SVG Version: 6.00 Build 0)  -->
<svg version="1.1" id="Layer_1" xmlns="http://www.w3.org/2000/svg" xmlns:xlink="http://www.w3.org/1999/xlink" x="0px" y="0px"
	 viewBox="0 0 16 16" style="enable-background:new 0 0 16 16;" xml:space="preserve">
<style type="text/css">
	.st0{fill:#FFFFFF;}
</style>
<g>
	<path class="st0" d="M15.74,2.67l-2.41-2.41l0,0c-0.01-0.01-0.01-0.01-0.02-0.02C13.15,0.08,12.94,0,12.72,0
		c-0.22,0-0.44,0.09-0.61,0.26l-1.22,1.2l3.64,3.64l1.2-1.21c0.01-0.01,0.01-0.01,0.02-0.02C16.09,3.54,16.08,3,15.74,2.67z"/>
	<path class="st0" d="M14.47,7.44L9.7,2.67L0,12.37V16h3.63l8.64-8.64l0.62,0.62l-5.6,5.6l1.06,1.06l6.66-6.66L14.47,7.44z
		 M3.01,14.5H1.5v-1.51l8.2-8.2l1.51,1.51L3.01,14.5z"/>
</g>
</svg>
