<?xml version="1.0" encoding="utf-8"?>
<!-- Generator: Adobe Illustrator 24.1.0, SVG Export Plug-In . SVG Version: 6.00 Build 0)  -->
<svg version="1.1" id="Layer_1" xmlns="http://www.w3.org/2000/svg" xmlns:xlink="http://www.w3.org/1999/xlink" x="0px" y="0px"
	 viewBox="0 0 16 16" style="enable-background:new 0 0 16 16;" xml:space="preserve">
<style type="text/css">
	.st0{fill:#FFFFFF;}
</style>
<g>
	<path class="st0" d="M15.7,2.7l-2.4-2.4l0,0c0,0,0,0,0,0C13.2,0.1,12.9,0,12.7,0c-0.2,0-0.4,0.1-0.6,0.3l-1.2,1.2l3.6,3.6l1.2-1.2
		c0,0,0,0,0,0C16.1,3.5,16.1,3,15.7,2.7z"/>
	<path class="st0" d="M14.5,7.4L9.7,2.7L0,12.4V16h3.6l8.6-8.6L12.9,8l-5.6,5.6l1.1,1.1L15,8L14.5,7.4z"/>
</g>
</svg>
