<svg id="Layer_1" data-name="Layer 1" xmlns="http://www.w3.org/2000/svg" viewBox="0 0 16 16"><defs><style>.cls-1{fill:#817d9d;}</style></defs><path class="cls-1" d="M13.5,0h-6A2.5,2.5,0,0,0,5,2.5V3H2.5A2.5,2.5,0,0,0,0,5.5v8A2.5,2.5,0,0,0,2.5,16h6A2.5,2.5,0,0,0,11,13.5V13h2.5A2.5,2.5,0,0,0,16,10.5v-8Zm1,3.12V3.5H12.8a.29.29,0,0,1-.3-.3V1.5h.38ZM9.5,13.5a1,1,0,0,1-1,1h-6a1,1,0,0,1-1-1v-8a1,1,0,0,1,1-1H5v6A2.5,2.5,0,0,0,7.5,13h2ZM6.5,3V2.5a1,1,0,0,1,1-1H11V3.2A1.81,1.81,0,0,0,12.8,5h1.7v5.5a1,1,0,0,1-1,1h-6a1,1,0,0,1-1-1V3Z"/></svg>