<svg id="Layer_1" data-name="Layer 1" xmlns="http://www.w3.org/2000/svg" viewBox="0 0 16 16"><defs><style>.cls-1{fill:#08135e;}</style></defs><path class="cls-1" d="M11,0H5A5,5,0,0,0,0,5v6a5,5,0,0,0,5,5h6a5,5,0,0,0,5-5V5A5,5,0,0,0,11,0Zm3.5,11A3.5,3.5,0,0,1,11,14.5H8.48V10.22h2.14V8.72H8.48V8.44c0-.68,0-1.95.32-2.25a1.11,1.11,0,0,1,.73-.12l.35,0,.77.06.2-1.49L10,4.6l-.35,0a2.39,2.39,0,0,0-1.86.52C7,5.78,7,7,7,8.44v.28H5.25v1.5H7V14.5H5A3.5,3.5,0,0,1,1.5,11V5A3.5,3.5,0,0,1,5,1.5h6A3.5,3.5,0,0,1,14.5,5Z"/></svg>