<svg id="Layer_1" data-name="Layer 1" xmlns="http://www.w3.org/2000/svg" viewBox="0 0 16 16"><defs><style>.cls-1{fill:#08135e;}</style></defs><path class="cls-1" d="M11.43,2.25A2.13,2.13,0,0,1,13,2.93a1.35,1.35,0,0,0,.32.26,1.37,1.37,0,0,0,.07.34,1.76,1.76,0,0,0,.24.45,1.64,1.64,0,0,0,0,.45c0,.13,0,.27,0,.4a8.86,8.86,0,0,1-8.86,8.92,8.12,8.12,0,0,0,.67-.48,1.5,1.5,0,0,0-.89-2.68,2.09,2.09,0,0,1-.67-.12,1.52,1.52,0,0,0,.37-1A1.5,1.5,0,0,0,3,8a2,2,0,0,1-.86-.38,1.52,1.52,0,0,0,.71-.86,1.49,1.49,0,0,0-.51-1.65A11.81,11.81,0,0,0,7.79,6.74h.08A1.51,1.51,0,0,0,9,6.21,1.54,1.54,0,0,0,9.33,4.9a1.93,1.93,0,0,1-.06-.49,2.16,2.16,0,0,1,2.16-2.16m0-1.5A3.66,3.66,0,0,0,7.77,4.41a3.2,3.2,0,0,0,.1.83A10.4,10.4,0,0,1,.32,1.42,3.69,3.69,0,0,0,1.45,6.31,3.67,3.67,0,0,1-.2,5.85V5.9A3.65,3.65,0,0,0,2.73,9.48a3.42,3.42,0,0,1-1,.13,3.85,3.85,0,0,1-.69-.06A3.67,3.67,0,0,0,4.5,12.09,7.35,7.35,0,0,1,0,13.66a8.46,8.46,0,0,1-.87-.05,10.42,10.42,0,0,0,5.61,1.64A10.35,10.35,0,0,0,15.11,4.83c0-.15,0-.31,0-.47a7.31,7.31,0,0,0,1.83-1.89,7.42,7.42,0,0,1-2.1.57,3.72,3.72,0,0,0,1.61-2,7.46,7.46,0,0,1-2.33.89A3.61,3.61,0,0,0,11.43.75Z"/></svg>