<svg id="Layer_1" data-name="Layer 1" xmlns="http://www.w3.org/2000/svg" viewBox="0 0 16 16"><defs><style>.cls-1{fill:#08135e;}</style></defs><path class="cls-1" d="M15.6,8.91A3,3,0,0,0,16,7.4a2.67,2.67,0,0,0-.75-1.83,2.6,2.6,0,0,0-1.92-.85H12.18a5.11,5.11,0,0,0,.29-1.33V3.28c0-.27,0-.47,0-.62A4.7,4.7,0,0,0,12.31,2a2.59,2.59,0,0,0-.52-1,.28.28,0,0,0-.09-.1,2.54,2.54,0,0,0-1-.63A3.2,3.2,0,0,0,9.52,0H9.43A1.48,1.48,0,0,0,8.2.7a4.64,4.64,0,0,0-.69,2,1.64,1.64,0,0,1-.35.76,9.41,9.41,0,0,0-.75.92l-.76,1A4.66,4.66,0,0,1,5.09,6H1a1,1,0,0,0-.7.3A1,1,0,0,0,0,7v7.5a1,1,0,0,0,.3.7,1,1,0,0,0,.7.3H3a.92.92,0,0,0,.61-.22,1.09,1.09,0,0,0,.33-.46,14.52,14.52,0,0,1,3,.48,10.58,10.58,0,0,0,3.4.7h1.21a3.18,3.18,0,0,0,2.54-1,3,3,0,0,0,.69-2,2.89,2.89,0,0,0,.44-.94,2.75,2.75,0,0,0,.09-1.14,3.11,3.11,0,0,0,.35-1.3A2.54,2.54,0,0,0,15.6,8.91ZM2.53,14a.71.71,0,0,1-.53.22A.75.75,0,1,1,2.53,14ZM14.27,8.22c-.16.25-.31.37-.46.37a1.19,1.19,0,0,1,.33,1,1.61,1.61,0,0,1-.48,1.11h0a1.39,1.39,0,0,1,.09,1,1.2,1.2,0,0,1-.53.75c.21,1.38-.36,2.06-1.69,2.06H10.38a9.31,9.31,0,0,1-2.9-.59A16.9,16.9,0,0,0,4,13.31l0-.18V7.5H5.34a1.2,1.2,0,0,0,.74-.37,5.43,5.43,0,0,0,.76-.83l.78-1c.21-.28.43-.55.66-.8A3.15,3.15,0,0,0,9,2.86,3.11,3.11,0,0,1,9.47,1.5h0a2,2,0,0,1,.68.12,1.21,1.21,0,0,1,.44.29,1,1,0,0,1,.22.44A3,3,0,0,1,11,2.8c0,.11,0,.27,0,.48a3.59,3.59,0,0,1-.45,1.49,3.38,3.38,0,0,0-.46,1.45h3.27a1.13,1.13,0,0,1,.83.37,1.24,1.24,0,0,1,.34.82A1.55,1.55,0,0,1,14.27,8.22Z"/></svg>