<svg id="Layer_1" data-name="Layer 1" xmlns="http://www.w3.org/2000/svg" viewBox="0 0 16 16"><defs><style>.cls-1{fill:#08135e;}</style></defs><path class="cls-1" d="M8-.25A8.25,8.25,0,1,0,16.25,8,8.25,8.25,0,0,0,8-.25Zm0,15a6.74,6.74,0,0,1-1.63-.21l.81-3.27a2.94,2.94,0,0,0,1.68.54h.08a3.68,3.68,0,0,0,3.25-3.72,4.21,4.21,0,0,0-8.41,0,4.32,4.32,0,0,0,.1.95.76.76,0,0,0,.9.56.73.73,0,0,0,.56-.9,3.08,3.08,0,0,1-.06-.61,2.71,2.71,0,0,1,5.41,0,2.2,2.2,0,0,1-1.8,2.22,1.11,1.11,0,0,1-1.2-.91.15.15,0,0,0,0-.07L8.1,7.56a.75.75,0,0,0-1.46-.37L5,14A6.75,6.75,0,1,1,8,14.75Z"/></svg>