<?xml version="1.0" encoding="utf-8"?>
<!-- Generator: Adobe Illustrator 24.1.2, SVG Export Plug-In . SVG Version: 6.00 Build 0)  -->
<svg version="1.1" id="Layer_1" xmlns="http://www.w3.org/2000/svg" xmlns:xlink="http://www.w3.org/1999/xlink" x="0px" y="0px"
	 viewBox="0 0 16 16" style="enable-background:new 0 0 16 16;" xml:space="preserve">
<style type="text/css">
	.st0{fill:#08135E;}
</style>
<path class="st0" d="M11,1.5c1.9,0,3.5,1.6,3.5,3.5v6c0,1.9-1.6,3.5-3.5,3.5H5c-1.9,0-3.5-1.6-3.5-3.5V5c0-1.9,1.6-3.5,3.5-3.5H11
	 M11,0H5C2.2,0,0,2.2,0,5v6c0,2.8,2.2,5,5,5h6c2.8,0,5-2.2,5-5V5C16,2.2,13.8,0,11,0L11,0z"/>
<g>
	<path class="st0" d="M10.3,11.5c0,0.1,0.1,0.2,0.2,0.2h1.2c0.1,0,0.2-0.1,0.2-0.2V9.3c0-0.5,0-1.1-0.2-1.7c-0.3-0.6-0.8-1-1.6-1
		C9.2,6.7,8.8,7,8.6,7.4L8.5,7.5V6.9c0-0.1-0.1-0.2-0.2-0.2H7.2C7.1,6.8,7,6.8,7,6.9v4.6c0,0.1,0.1,0.2,0.2,0.2h1.1
		c0.1,0,0.2-0.1,0.2-0.2V9.1C8.5,8.7,8.7,8,9.4,8C9.7,8,9.9,8,10,8.2c0.3,0.3,0.3,0.9,0.3,1.1c0,0,0,0.1,0,0.1V11.5z"/>
	<path class="st0" d="M5.9,7c0-0.1-0.1-0.2-0.2-0.2H4.6C4.5,6.8,4.4,6.9,4.4,7v4.5c0,0.1,0.1,0.2,0.2,0.2h1.1c0.1,0,0.2-0.1,0.2-0.2
		V7z"/>
	<path class="st0" d="M5.1,4.3c-0.5,0-1,0.4-1,1s0.4,1,1,1s1-0.4,1-1S5.7,4.3,5.1,4.3z"/>
</g>
</svg>
