<?xml version="1.0" standalone="no"?>
<!DOCTYPE svg PUBLIC "-//W3C//DTD SVG 20010904//EN"
 "http://www.w3.org/TR/2001/REC-SVG-20010904/DTD/svg10.dtd">
<svg version="1.0" xmlns="http://www.w3.org/2000/svg"
 width="555.000000pt" height="539.000000pt" viewBox="0 0 555.000000 539.000000"
 preserveAspectRatio="xMidYMid meet">
<metadata>
Created by potrace 1.16, written by Peter Selinger 2001-2019
</metadata>
<g transform="translate(0.000000,539.000000) scale(0.100000,-0.100000)"
fill="#08135e;" stroke="none">
<path d="M355 5372 c-108 -46 -188 -124 -227 -220 l-23 -57 0 -2375 0 -2375
32 -67 c42 -89 101 -151 182 -191 l66 -32 2390 0 2390 0 57 27 c80 37 152 107
191 187 l32 66 0 2385 0 2385 -32 67 c-38 81 -102 146 -181 185 l-57 28 -2390
2 c-2234 2 -2393 1 -2430 -15z m1077 -733 c128 -43 215 -121 277 -249 35 -72
36 -79 36 -185 0 -129 -20 -190 -88 -280 -136 -179 -380 -235 -579 -134 -54
28 -153 122 -185 177 -150 256 -18 586 272 678 65 21 196 17 267 -7z m2427
-1189 c140 -15 240 -42 350 -96 77 -38 109 -61 175 -128 45 -44 96 -107 115
-139 74 -126 127 -313 150 -529 7 -60 11 -407 11 -913 l0 -815 -394 0 -394 0
-4 748 c-4 659 -7 757 -22 832 -33 160 -98 259 -205 309 -52 24 -66 26 -197
26 l-140 0 -76 -38 c-88 -43 -134 -91 -178 -182 -62 -132 -63 -137 -69 -950
l-6 -740 -395 0 -395 0 -3 1278 -2 1277 385 0 385 0 1 -172 0 -173 22 29 c110
145 195 222 316 285 172 89 334 115 570 91z m-2171 -1337 l-3 -1278 -395 0
-395 0 -3 1278 -2 1277 400 0 400 0 -2 -1277z"/>
</g>
</svg>
