<?xml version="1.0" encoding="utf-8"?>
<!-- Generator: Adobe Illustrator 24.1.0, SVG Export Plug-In . SVG Version: 6.00 Build 0)  -->
<svg version="1.1" id="Layer_1" xmlns="http://www.w3.org/2000/svg" xmlns:xlink="http://www.w3.org/1999/xlink" x="0px" y="0px"
	 viewBox="0 0 16 16" style="enable-background:new 0 0 16 16;" xml:space="preserve">
<style type="text/css">
	.st0{fill:#FFFFFF;}
</style>
<g>
	<path class="st0" d="M14.5,0h-13C0.67,0,0,0.67,0,1.5V6c0,0.65,0.42,1.2,1,1.41v5.95c0,1.45,0.98,2.62,2.19,2.62h9.62
		c1.21,0,2.19-1.17,2.19-2.62V7.41C15.58,7.2,16,6.65,16,6V1.5C16,0.67,15.33,0,14.5,0z M1.5,1.5h13V6h-13V1.5z M13.5,13.36
		c0,0.64-0.36,1.12-0.69,1.12H3.19c-0.32,0-0.69-0.48-0.69-1.12V7.51h11V13.36z"/>
	<rect x="5" y="9.75" class="st0" width="6" height="2"/>
</g>
</svg>
