<svg id="Layer_1" data-name="Layer 1" xmlns="http://www.w3.org/2000/svg" viewBox="0 0 16 15.98"><defs><style>.cls-1{fill:#000;}</style></defs><path class="cls-1" d="M13.5,1.48H11.75V.75a.75.75,0,0,0-1.5,0v.73H5.75V.75a.75.75,0,0,0-1.5,0v.73H2.5A2.5,2.5,0,0,0,0,4v9.5A2.5,2.5,0,0,0,2.5,16h11a2.5,2.5,0,0,0,2.5-2.5V4A2.5,2.5,0,0,0,13.5,1.48ZM2.5,3H4.25v.77a.75.75,0,0,0,1.5,0V3h4.5v.77a.75.75,0,0,0,1.5,0V3H13.5a1,1,0,0,1,1,1V6.25H1.5V4A1,1,0,0,1,2.5,3Zm11,11.5H2.5a1,1,0,0,1-1-1V7.75h13v5.73A1,1,0,0,1,13.5,14.48Z"/></svg>