<?xml version="1.0" encoding="utf-8"?>
<!-- Generator: Adobe Illustrator 24.1.0, SVG Export Plug-In . SVG Version: 6.00 Build 0)  -->
<svg version="1.1" id="Layer_1" xmlns="http://www.w3.org/2000/svg" xmlns:xlink="http://www.w3.org/1999/xlink" x="0px" y="0px"
	 viewBox="0 0 16 16" style="enable-background:new 0 0 16 16;" xml:space="preserve">
<style type="text/css">
	.st0{fill:#aeb0c2;}
</style>
<path class="st0" d="M14.5,5.5L14.5,5.5l0,5.5h-4l0-5.5H14.5 M14.5,4h-4C9.67,4,9,4.67,9,5.5v7h7v-7C16,4.67,15.33,4,14.5,4L14.5,4z
	"/>
<polygon class="st0" points="16,14.5 0,14.5 0,16 16,16 16,14.5 "/>
<path class="st0" d="M5.5,1.5V11h-4l0-9.5H5.5 M5.5,0h-4C0.67,0,0,0.67,0,1.5v11h7v-11C7,0.67,6.33,0,5.5,0L5.5,0z"/>
</svg>
