<svg id="Layer_1" data-name="Layer 1" xmlns="http://www.w3.org/2000/svg" viewBox="0 0 15.42 15.98"><defs><style>.cls-1{fill:#08135e;}</style></defs><path class="cls-1" d="M15.61,7.38A5.38,5.38,0,0,0,12.14.21,5.12,5.12,0,0,0,10.7,0,5.66,5.66,0,0,0,5.56,3.57L4.33,6.62a2.65,2.65,0,0,1-.63.92L.58,10.43l5.05,2a2.28,2.28,0,0,0-.26.46,2,2,0,0,0,3.79,1.53,1.91,1.91,0,0,0,.13-.51l5.05,2-.23-4.24a2.43,2.43,0,0,1,.18-1.1Zm-2.71,2.7a4.14,4.14,0,0,0-.29,1.74l.1,1.89-4.44-1.8A1.79,1.79,0,0,0,8,11.79a2.41,2.41,0,0,0-.25-.08L3.34,9.92,4.72,8.63a4.06,4.06,0,0,0,1-1.45L7,4.13A4.14,4.14,0,0,1,10.7,1.5a3.48,3.48,0,0,1,1,.15,3.83,3.83,0,0,1,2.4,2,3.88,3.88,0,0,1,.11,3.13Z" transform="translate(-0.58)"/></svg>