<?xml version="1.0" encoding="utf-8"?>
<!-- Generator: Adobe Illustrator 24.1.0, SVG Export Plug-In . SVG Version: 6.00 Build 0)  -->
<svg version="1.1" id="Layer_1" xmlns="http://www.w3.org/2000/svg" xmlns:xlink="http://www.w3.org/1999/xlink" x="0px" y="0px"
	 viewBox="0 0 16 16" style="enable-background:new 0 0 16 16;" xml:space="preserve">
<style type="text/css">
	.st0{fill:#aeb0c2;}
</style>
<path class="st0" d="M13.5,1.48h-1.75V0.75C11.75,0.34,11.41,0,11,0s-0.75,0.34-0.75,0.75v0.73h-4.5V0.75C5.75,0.34,5.41,0,5,0
	S4.25,0.34,4.25,0.75v0.73H2.5C1.12,1.48,0,2.6,0,3.98v9.5c0,1.38,1.12,2.5,2.5,2.5h11c1.38,0,2.5-1.12,2.5-2.5v-9.5
	C16,2.6,14.88,1.48,13.5,1.48z M2.5,2.98h1.75v0.77C4.25,4.16,4.59,4.5,5,4.5s0.75-0.34,0.75-0.75V2.98h4.5v0.77
	c0,0.41,0.34,0.75,0.75,0.75s0.75-0.34,0.75-0.75V2.98h1.75c0.55,0,1,0.45,1,1v2.27h-13V3.98C1.5,3.43,1.95,2.98,2.5,2.98z
	 M13.5,14.48h-11c-0.55,0-1-0.45-1-1V7.75h13v5.73C14.5,14.03,14.05,14.48,13.5,14.48z"/>
</svg>
