<?xml version="1.0" encoding="utf-8"?>
<!-- Generator: Adobe Illustrator 24.1.0, SVG Export Plug-In . SVG Version: 6.00 Build 0)  -->
<svg version="1.1" id="Layer_1" xmlns="http://www.w3.org/2000/svg" xmlns:xlink="http://www.w3.org/1999/xlink" x="0px" y="0px"
	 viewBox="0 0 16 16" style="enable-background:new 0 0 16 16;" xml:space="preserve">
<style type="text/css">
	.st0{fill:#aeb0c2;}
</style>
<path class="st0" d="M5.5,1.5v4h-4v-4H5.5 M5.5,0h-4C0.67,0,0,0.67,0,1.5v4C0,6.33,0.67,7,1.5,7h4C6.33,7,7,6.33,7,5.5v-4
	C7,0.67,6.33,0,5.5,0L5.5,0z"/>
<path class="st0" d="M14.5,10.5v4h-13v-4H14.5 M14.5,9h-13C0.67,9,0,9.67,0,10.5v4C0,15.33,0.67,16,1.5,16h13
	c0.83,0,1.5-0.67,1.5-1.5v-4C16,9.67,15.33,9,14.5,9L14.5,9z"/>
<path class="st0" d="M14.5,1.5v4h-4v-4H14.5 M14.5,0h-4C9.67,0,9,0.67,9,1.5v4C9,6.33,9.67,7,10.5,7h4C15.33,7,16,6.33,16,5.5v-4
	C16,0.67,15.33,0,14.5,0L14.5,0z"/>
</svg>
