<?xml version="1.0" encoding="utf-8"?>
<!-- Generator: Adobe Illustrator 24.1.0, SVG Export Plug-In . SVG Version: 6.00 Build 0)  -->
<svg version="1.1" id="Layer_1" xmlns="http://www.w3.org/2000/svg" xmlns:xlink="http://www.w3.org/1999/xlink" x="0px" y="0px"
	 viewBox="0 0 16 16" style="enable-background:new 0 0 16 16;" xml:space="preserve">
<style type="text/css">
	.st0{fill:#E9EEFA;}
</style>
<g>
	<path class="st0" d="M15.61,7.38c1.18-2.91-0.38-6.25-3.47-7.17C11.66,0.07,11.18,0,10.7,0C8.5,0,6.43,1.43,5.56,3.57L4.33,6.62
		C4.19,6.97,3.97,7.28,3.7,7.54l-3.11,2.89l5.05,2.04c-0.1,0.14-0.2,0.29-0.26,0.45c-0.42,1.05,0.08,2.24,1.13,2.66
		C7.55,16,8.74,15.5,9.16,14.45c0.07-0.17,0.1-0.34,0.13-0.51l5.05,2.04l-0.23-4.24c-0.02-0.38,0.04-0.75,0.18-1.1L15.61,7.38z
		 M12.9,10.08c-0.22,0.55-0.32,1.15-0.29,1.74l0.1,1.88l-4.44-1.79c-0.08-0.04-0.15-0.09-0.24-0.12s-0.17-0.05-0.26-0.07L3.34,9.92
		l1.38-1.28c0.43-0.4,0.78-0.91,1-1.45l1.23-3.05C7.59,2.56,9.09,1.5,10.7,1.5c0.34,0,0.69,0.05,1.02,0.15
		c1.07,0.32,1.92,1.04,2.4,2.03c0.47,0.98,0.51,2.12,0.1,3.13L12.9,10.08z"/>
</g>
</svg>
