<svg id="Layer_1" data-name="Layer 1" xmlns="http://www.w3.org/2000/svg" viewBox="0 0 16 16"><defs><style>.cls-1{fill:#08135e;}</style></defs><path class="cls-1" d="M13.5,0H2.5A2.5,2.5,0,0,0,0,2.5v11A2.5,2.5,0,0,0,2.5,16h11A2.5,2.5,0,0,0,16,13.5V2.5A2.5,2.5,0,0,0,13.5,0Zm1,13.5a1,1,0,0,1-1,1H2.5a1,1,0,0,1-1-1V2.5a1,1,0,0,1,1-1h11a1,1,0,0,1,1,1Z"/><rect class="cls-1" x="3.5" y="4" width="3" height="3"/><rect class="cls-1" x="8" y="6" width="4.5" height="1"/><rect class="cls-1" x="3.5" y="8.5" width="9" height="1"/><rect class="cls-1" x="3.5" y="11" width="9" height="1"/></svg>