<svg id="Layer_1" data-name="Layer 1" xmlns="http://www.w3.org/2000/svg" viewBox="0 0 16 16"><defs><style>.cls-1{fill:#08135e;}</style></defs><path class="cls-1" d="M13.5,2H9.11L7.34.41A1.6,1.6,0,0,0,6.28,0H2.5A2.5,2.5,0,0,0,0,2.5v11A2.5,2.5,0,0,0,2.5,16h11A2.5,2.5,0,0,0,16,13.5v-9A2.5,2.5,0,0,0,13.5,2Zm1,11.5a1,1,0,0,1-1,1H2.5a1,1,0,0,1-1-1V2.5a1,1,0,0,1,1-1H6.28l.06,0,1.77,1.6.43.38h5a1,1,0,0,1,1,1Z"/><polygon class="cls-1" points="7.37 6.32 9.16 8.5 5.13 8.5 5.13 9.5 9.16 9.5 7.37 11.68 8.15 12.32 10.87 9.01 8.15 5.68 7.37 6.32"/></svg>