<svg id="Layer_1" data-name="Layer 1" xmlns="http://www.w3.org/2000/svg" viewBox="0 0 16 16"><defs><style>.cls-1{fill:#817d9d;}</style></defs><path class="cls-1" d="M8,1.51a1.05,1.05,0,0,1,.68.26l5.48,4.61a1,1,0,0,1,.34.75V14.5H1.5V7.13a1,1,0,0,1,.32-.73L7.34,1.76A1,1,0,0,1,8,1.51M8,0A2.44,2.44,0,0,0,6.36.63L.85,5.25A2.51,2.51,0,0,0,0,7.13V14.5A1.5,1.5,0,0,0,1.5,16h13A1.5,1.5,0,0,0,16,14.5V7.13a2.51,2.51,0,0,0-.85-1.88L9.64.63A2.44,2.44,0,0,0,8,0Z"/><path class="cls-1" d="M8,11.38a3.27,3.27,0,0,1-2-.71L2.48,7.9l.93-1.18L6.91,9.5a1.77,1.77,0,0,0,2.18,0l3.5-2.78.93,1.18L10,10.67A3.27,3.27,0,0,1,8,11.38Z"/></svg>