<?xml version="1.0" encoding="utf-8"?>
<!-- Generator: Adobe Illustrator 24.1.2, SVG Export Plug-In . SVG Version: 6.00 Build 0)  -->
<svg version="1.1" id="Layer_1" xmlns="http://www.w3.org/2000/svg" xmlns:xlink="http://www.w3.org/1999/xlink" x="0px" y="0px"
	 viewBox="0 0 21 21" style="enable-background:new 0 0 21 21;" xml:space="preserve">
<style type="text/css">
	.st0{fill:#EBE4DA;}
	.st1{fill:#DEDAD4;}
	.st2{fill:#08135E;}
</style>
<g id="Path_268">
	<path class="st0" d="M10.5,20.2c-5.4,0-9.8-4.4-9.8-9.8s4.4-9.8,9.8-9.8s9.8,4.4,9.8,9.8S15.9,20.2,10.5,20.2z"/>
	<path class="st1" d="M10.5,1.5c-5,0-9,4-9,9s4,9,9,9s9-4,9-9S15.5,1.5,10.5,1.5 M10.5,0C16.3,0,21,4.7,21,10.5S16.3,21,10.5,21
		S0,16.3,0,10.5S4.7,0,10.5,0z"/>
</g>
<path id="Path_269" class="st2" d="M9.8,14c-0.2,0-0.4-0.1-0.6-0.2l-3.3-3L7,9.5l2.7,2.4l4.1-5l1.4,1.1l-4.7,5.7
	C10.3,13.9,10.1,14,9.8,14L9.8,14z"/>
</svg>
