<?xml version="1.0" encoding="utf-8"?>
<!-- Generator: Adobe Illustrator 24.1.2, SVG Export Plug-In . SVG Version: 6.00 Build 0)  -->
<svg version="1.1" id="Layer_1" xmlns="http://www.w3.org/2000/svg" xmlns:xlink="http://www.w3.org/1999/xlink" x="0px" y="0px"
	 viewBox="0 0 16 16" style="enable-background:new 0 0 16 16;" xml:space="preserve">
<style type="text/css">
	.st0{fill:#817d9d;}
</style>
<path class="st0" d="M13.5,0h-11C1.1,0,0,1.1,0,2.5v8C0,11.9,1.1,13,2.5,13h4.7v1.5H5V16h6v-1.5H8.8V13h4.7c1.4,0,2.5-1.1,2.5-2.5
	v-8C16,1.1,14.9,0,13.5,0z M14.5,10.5c0,0.6-0.5,1-1,1h-11c-0.6,0-1-0.5-1-1v-8c0-0.6,0.5-1,1-1h11c0.6,0,1,0.5,1,1V10.5z"/>
</svg>
