<svg id="Layer_1" data-name="Layer 1" xmlns="http://www.w3.org/2000/svg" viewBox="0 0 16 16"><defs><style>.cls-1{fill:#08135e;}</style></defs><g id="Group_607" data-name="Group 607"><path id="Path_180" data-name="Path 180" class="cls-1" d="M16,7.4,15.77,3A2.89,2.89,0,0,0,13,.24L8.6,0A2.87,2.87,0,0,0,6.42.88L.24,7.05a.8.8,0,0,0,0,1.08l7.62,7.61h0a.77.77,0,0,0,1.08,0H9l6.17-6.15A2.89,2.89,0,0,0,16,7.4ZM8.41,14.17,1.83,7.59,7.48,1.94a1.37,1.37,0,0,1,1-.41l4.4.2a1.39,1.39,0,0,1,1.33,1.33l.2,4.4a1.39,1.39,0,0,1-.41,1.06Z"/><path id="Path_181" data-name="Path 181" class="cls-1" d="M12,4A2,2,0,0,0,9.16,6.82l0,0a2,2,0,0,0,1.39.58A1.93,1.93,0,0,0,12,6.83a2,2,0,0,0,.58-1.44A1.92,1.92,0,0,0,12,4Zm-1.4,2.43a.94.94,0,0,1-.7-.3h0a1,1,0,0,1,0-1.4h0a1,1,0,0,1,1.41,0h0a1,1,0,0,1,.28.71.94.94,0,0,1-.3.71A.92.92,0,0,1,10.59,6.42Z"/></g></svg>